HIERARCHY
ROOT Hips
{
	OFFSET -13.091600 -28.302996 44.698402
	CHANNELS 6 Xposition Yposition Zposition Zrotation Xrotation Yrotation
	JOINT Chest
	{
		OFFSET -0.673000 0.623899 5.369202
		CHANNELS 6 Xposition Yposition Zposition Zrotation Xrotation Yrotation
		JOINT Chest2
		{
			OFFSET 0.000000 0.000000 4.415001
			CHANNELS 6 Xposition Yposition Zposition Zrotation Xrotation Yrotation
			JOINT Neck
			{
				OFFSET 0.000000 0.000002 10.273300
				CHANNELS 6 Xposition Yposition Zposition Zrotation Xrotation Yrotation
				JOINT Head
				{
					OFFSET 0.000000 0.000000 2.173897
					CHANNELS 6 Xposition Yposition Zposition Zrotation Xrotation Yrotation
					End Site
					{
						OFFSET 0.000000 0.000000 9.961800
					}
				}
			}
			JOINT LeftCollar
			{
				OFFSET 2.359900 -0.565201 5.928101
				CHANNELS 6 Xposition Yposition Zposition Zrotation Xrotation Yrotation
				JOINT LeftShoulder
				{
					OFFSET 5.443700 0.000000 0.000000
					CHANNELS 6 Xposition Yposition Zposition Zrotation Xrotation Yrotation
					JOINT LeftElbow
					{
						OFFSET 0.000000 0.000000 -10.615799
						CHANNELS 6 Xposition Yposition Zposition Zrotation Xrotation Yrotation
						JOINT LeftWrist
						{
							OFFSET 0.000000 -0.000002 -13.110302
							CHANNELS 6 Xposition Yposition Zposition Zrotation Xrotation Yrotation
							End Site
							{
								OFFSET 0.000000 0.000000 -2.173901
							}
						}
					}
				}
			}
			JOINT RightCollar
			{
				OFFSET -2.636600 -1.718800 6.889698
				CHANNELS 6 Xposition Yposition Zposition Zrotation Xrotation Yrotation
				JOINT RightShoulder
				{
					OFFSET -4.139101 0.000000 0.000000
					CHANNELS 6 Xposition Yposition Zposition Zrotation Xrotation Yrotation
					JOINT RightElbow
					{
						OFFSET 0.000000 0.000000 -10.471802
						CHANNELS 6 Xposition Yposition Zposition Zrotation Xrotation Yrotation
						JOINT RightWrist
						{
							OFFSET 0.000000 0.000000 -12.281898
							CHANNELS 6 Xposition Yposition Zposition Zrotation Xrotation Yrotation
							End Site
							{
								OFFSET 0.000000 -0.000002 -2.173901
							}
						}
					}
				}
			}
		}
	}
	JOINT LeftHip
	{
		OFFSET 2.273400 0.176701 -2.518002
		CHANNELS 6 Xposition Yposition Zposition Zrotation Xrotation Yrotation
		JOINT LeftKnee
		{
			OFFSET 0.000000 -0.000002 -20.456402
			CHANNELS 6 Xposition Yposition Zposition Zrotation Xrotation Yrotation
			JOINT LeftAnkle
			{
				OFFSET 0.000000 -0.000002 -16.635300
				CHANNELS 6 Xposition Yposition Zposition Zrotation Xrotation Yrotation
				End Site
				{
					OFFSET 0.000000 -8.812399 0.000001
				}
			}
		}
	}
	JOINT RightHip
	{
		OFFSET -1.914800 0.018101 -2.699299
		CHANNELS 6 Xposition Yposition Zposition Zrotation Xrotation Yrotation
		JOINT RightKnee
		{
			OFFSET 0.000000 -0.000002 -20.148901
			CHANNELS 6 Xposition Yposition Zposition Zrotation Xrotation Yrotation
			JOINT RightAnkle
			{
				OFFSET 0.000000 -0.000002 -16.838301
				CHANNELS 6 Xposition Yposition Zposition Zrotation Xrotation Yrotation
				End Site
				{
					OFFSET 0.000000 -8.328398 0.000001
				}
			}
		}
	}
}
MOTION
Frames: 4
Frame Time: 0.041667
-41.832603 -24.979094 41.115505 403.537111 5.130909 5.121541 -0.673001 0.623904 5.369209 -43.710885 -2.471537 -11.449748 -0.000001 0.000000 4.415006 26.111265 0.552634 1.070547 0.000004 -0.000001 10.273308 -39.324760 16.718281 -14.172946 -0.000003 -0.000006 2.173902 -2.933697 -2.608053 -4.220130 2.359898 -0.565204 5.928110 1.240143 -0.916502 -41.352537 5.443697 0.000001 0.000002 164.451708 227.735241 -285.825112 0.000005 -0.000001 -10.615798 244.401654 -151.955931 190.282295 -0.000005 -0.000011 -13.110300 -139.861715 -171.143476 127.481465 -2.636607 -1.718803 6.889709 -15.789586 -4.662404 -6.203077 -4.139100 -0.000004 0.000004 186.106235 -172.347202 274.729497 -0.000005 0.000002 -10.471793 -86.250468 -44.655640 -130.359447 -0.000002 -0.000003 -12.281900 -19.188455 11.640659 40.892838 2.273399 0.176703 -2.518004 -99.552555 -131.771998 -147.002623 0.000000 0.000000 -20.456398 -124.698887 10.901673 136.809741 -0.000004 -0.000002 -16.635300 36.410273 7.581007 23.284494 -1.914794 0.018106 -2.699301 131.440065 203.505882 154.249768 0.000004 -0.000006 -20.148899 61.125931 64.812512 -31.987186 0.000002 -0.000008 -16.838301 -22.361449 3.590626 -2.734308
-41.818901 -25.020294 41.081203 403.837831 5.203002 5.217367 -0.673007 0.623899 5.369205 -44.035602 -2.521477 -11.551164 0.000002 -0.000000 4.415003 26.379608 0.579863 1.085280 0.000004 -0.000002 10.273295 -39.437809 16.749541 -14.269100 -0.000001 -0.000005 2.173892 -2.999923 -2.622582 -4.201990 2.359905 -0.565202 5.928100 1.266544 -0.995398 -41.375961 5.443699 -0.000003 0.000004 164.378556 227.864905 -285.813473 0.000006 -0.000002 -10.615793 244.503342 -151.974878 190.247365 -0.000002 -0.000010 -13.110308 -139.877671 -171.177067 127.678789 -2.636602 -1.718803 6.889701 -15.833309 -4.703190 -6.179961 -4.139090 -0.000003 0.000001 186.080690 -172.303734 274.567539 -0.000002 0.000001 -10.471801 -86.445012 -44.749999 -130.494125 0.000000 0.000001 -12.281898 -19.442444 11.687332 40.964848 2.273393 0.176696 -2.518006 -99.509149 -131.718477 -146.877877 -0.000005 -0.000004 -20.456394 -124.607062 10.941338 136.804236 -0.000003 -0.000005 -16.635300 36.383861 7.506940 23.220975 -1.914801 0.018102 -2.699302 131.390450 203.551932 154.243321 0.000006 0.000000 -20.148895 60.731126 65.043379 -31.948514 -0.000001 -0.000007 -16.838301 -22.199783 3.430357 -2.662854
-41.803005 -25.059793 41.047005 404.149888 5.236349 5.307768 -0.673003 0.623900 5.369208 -44.365480 -2.523530 -11.605810 -0.000005 0.000000 4.415006 26.637188 0.599114 1.097266 -0.000003 -0.000001 10.273303 -39.560244 16.771499 -14.379345 0.000003 -0.000005 2.173891 -3.083899 -2.646563 -4.187343 2.359899 -0.565205 5.928105 1.304697 -1.105056 -41.393515 5.443688 -0.000001 0.000001 164.247840 228.003066 -285.869317 -0.000001 0.000003 -10.615796 244.551809 -152.022457 190.243786 0.000000 -0.000005 -13.110300 -139.880744 -171.122303 127.870854 -2.636605 -1.718808 6.889709 -15.948271 -4.771421 -6.242036 -4.139094 -0.000005 -0.000001 186.118038 -172.286590 274.461043 0.000001 0.000002 -10.471794 -86.704552 -44.836548 -130.675084 -0.000004 0.000005 -12.281901 -19.670444 11.730159 41.050427 2.273393 0.176705 -2.518000 -99.474759 -131.661581 -146.743486 -0.000004 0.000000 -20.456398 -124.580137 11.014018 136.775344 -0.000002 -0.000003 -16.635298 36.415184 7.407891 23.158462 -1.914798 0.018105 -2.699297 131.234094 203.528545 154.203733 0.000002 -0.000010 -20.148907 60.405647 65.298056 -31.843455 -0.000001 -0.000004 -16.838299 -22.081254 3.311714 -2.539297
-41.785904 -25.097794 41.013599 404.474623 5.284568 5.365046 -0.672997 0.623899 5.369210 -44.707396 -2.541002 -11.639417 0.000005 0.000002 4.415003 26.864903 0.605895 1.104749 -0.000001 0.000004 10.273301 -39.695325 16.784929 -14.463043 0.000004 -0.000001 2.173890 -3.149212 -2.652936 -4.165022 2.359895 -0.565203 5.928101 1.332123 -1.193861 -41.440014 5.443693 -0.000002 0.000004 164.189128 228.114043 -285.897703 0.000005 -0.000001 -10.615793 244.604702 -152.047743 190.223214 -0.000005 -0.000003 -13.110308 -139.862999 -171.069519 128.074557 -2.636602 -1.718802 6.889703 -16.095412 -4.813153 -6.394273 -4.139099 -0.000003 -0.000001 186.194536 -172.341109 274.453120 -0.000004 0.000003 -10.471805 -87.059743 -44.850844 -130.887325 0.000003 -0.000007 -12.281903 -19.858432 11.807298 41.150315 2.273397 0.176699 -2.518008 -99.388378 -131.613388 -146.520153 0.000002 -0.000001 -20.456398 -124.594658 11.098419 136.726112 -0.000007 -0.000004 -16.635296 36.388953 7.475604 23.129111 -1.914795 0.018106 -2.699294 131.033436 203.514939 154.127945 -0.000002 -0.000002 -20.148899 60.449906 65.506213 -31.975558 0.000000 -0.000008 -16.838299 -22.136459 3.184391 -2.459934
